HIERARCHY
ROOT pelvis
{
  OFFSET 0 100 0
  CHANNELS 6 Xposition Yposition Zposition Zrotation Xrotation Yrotation
  JOINT pelvis_right_femur
  {
    OFFSET -10.78128 -3.44521 -0.5502486
    CHANNELS 3 Zrotation Xrotation Yrotation
    JOINT right_femur_tibia
    {
      OFFSET -0.8047443 -44.0398 -0.1307829
      CHANNELS 3 Zrotation Xrotation Yrotation
      JOINT right_tibia_foot
      {
        OFFSET 3.006224 -47.83518 -5
        CHANNELS 3 Zrotation Xrotation Yrotation
        End Site
        {
          OFFSET 0 -5 15
        }
      }
    }
  }
  JOINT pelvis_left_femur
  {
    OFFSET 10.78128 -3.44521 -0.5502486
    CHANNELS 3 Zrotation Xrotation Yrotation
    JOINT left_femur_tibia
    {
      OFFSET 0.8047443 -44.0398 -0.1307829
      CHANNELS 3 Zrotation Xrotation Yrotation
      JOINT left_tibia_foot
      {
        OFFSET -4.370144 -48.10324 -4.275266
        CHANNELS 3 Zrotation Xrotation Yrotation
        End Site
        {
          OFFSET 0 -5 15
        }
      }
    }
  }
  JOINT pelvis_spine1
  {
    OFFSET 0 6.468898 -3.129235
    CHANNELS 3 Zrotation Xrotation Yrotation
    JOINT spine1
    {
      OFFSET 0 23.15396 4.99043
      CHANNELS 3 Zrotation Xrotation Yrotation
      JOINT spine2
      {
        OFFSET 0 20.79997 -5.064912
        CHANNELS 3 Zrotation Xrotation Yrotation
        JOINT neck
        {
          OFFSET 0 14.38658 9.616178
          CHANNELS 3 Zrotation Xrotation Yrotation
          End Site
          {
            OFFSET 0 20 0
          }
        }
      }
      JOINT right_manubrium
      {
        OFFSET -5.722621 16.35077 3.967754
        CHANNELS 3 Zrotation Xrotation Yrotation
        JOINT right_clavicle
        {
          OFFSET -13.16364 1.694482 -4.693211
          CHANNELS 3 Zrotation Xrotation Yrotation
          JOINT right_humerus
          {
            OFFSET -28.5034 -0.3100689 -2.792744
            CHANNELS 3 Zrotation Xrotation Yrotation
            JOINT right_radius
            {
              OFFSET -25.15693 0.02248979 -1.271978
              CHANNELS 3 Zrotation Xrotation Yrotation
              End Site
              {
                OFFSET -15 0 0
              }
            }
          }
        }
      }
      JOINT left_manubrium
      {
        OFFSET 5.722621 16.35077 3.967754
        CHANNELS 3 Zrotation Xrotation Yrotation
        JOINT left_clavicle
        {
          OFFSET 13.16364 1.694482 -4.693211
          CHANNELS 3 Zrotation Xrotation Yrotation
          JOINT left_humerus
          {
            OFFSET 29.39168 -1.063119 -2.237045
            CHANNELS 3 Zrotation Xrotation Yrotation
            JOINT left_radius
            {
              OFFSET 24.59957 -0.9528479 0.9047498
              CHANNELS 3 Zrotation Xrotation Yrotation
              End Site
              {
                OFFSET 15 -0 -0
              }
            }
          }
        }
      }
    }
  }
}
MOTION
Frames: 13
Frame Time: 0.0416666666667
0 103.5113 0 0.7443435 -1.977368 0.8241312 0.946718 -21.58584 2.522255 -0 34.95947 -0 -4.444459 -4.555374 -3.453761 -6.093824 12.37554 -17.06292 0 -5.592152 0 2.561546 -21.80325 19.84497 -3.529328 -1.458558 2.704451 1.511306 8.808764 -7.351886 1.291811 22.02072 7.37667 3.239075 -21.69359 8.893776 3.810788 -18.24876 10.51619 86.95516 30.86603 -17.88498 -0 0 14.15813 -15.30754 10.14338 8.854862 6.445318 -20.08924 -3.441223 -89.4025 26.49387 16.73492 0 0 -18.54999 3.738567 14.80139 9.167115
0.5595513 102.5405 3.720203 0.7215755 -1.830287 1.604882 1.041463 -22.01018 2.465927 -0 34.17043 -0 -4.667205 -4.723733 -3.363962 -6.037917 12.574 -17.14436 0 -6.021037 0 2.747951 -21.92499 19.89224 -3.500659 -1.514456 2.687358 1.571126 8.831696 -7.426876 1.264517 21.97947 7.376675 3.258257 -21.83261 8.877198 3.779098 -18.34638 10.53818 87.03969 30.87685 -18.0611 -0 0 14.15608 -15.14332 10.08484 8.767683 6.513973 -20.24874 -3.453287 -89.44536 26.43443 16.79023 0 0 -18.73 3.940579 14.95386 8.908947
1.061212 101.5888 7.493308 0.5778795 -1.638841 2.287164 1.601361 -23.16206 2.601756 -0 31.3014 -0 -4.783999 -5.199793 -3.579829 -5.817814 13.14942 -16.79816 0 -2.871908 0 2.126943 -21.74165 19.24224 -3.274552 -1.452139 2.676625 1.757519 8.814264 -7.633805 1.267496 21.91188 7.314171 3.250579 -21.92149 8.795385 3.803467 -18.00163 10.5797 87.4002 30.98422 -18.91557 -0 0 13.53397 -14.76402 10.28758 8.37485 6.578663 -20.58847 -3.432446 -89.09158 26.52789 16.09666 0 0 -19.78491 3.935891 14.89495 8.938612
1.494512 100.5228 11.166 0.3314876 -1.101311 2.859499 2.264878 -25.1408 2.611954 -0 27.14683 -0 -5.441752 -6.07936 -3.503482 -5.513203 14.07241 -16.82128 0 -1.961858 0 2.191818 -21.98014 18.93375 -3.047445 -1.558126 2.629012 2.057375 8.838531 -7.984123 1.195241 21.7452 7.27679 3.295734 -22.37664 8.704104 3.759537 -18.02783 10.66512 87.84838 31.14409 -19.97742 -0 0 13.13213 -14.01135 10.26641 7.855493 6.810385 -21.23433 -3.42345 -88.98839 26.50131 15.79546 0 0 -21.01925 4.419472 15.25658 8.343837
1.841614 99.34998 14.77868 0.08349975 -0.6658124 3.323989 2.952391 -26.98771 2.634194 -0 23.03019 -0 -6.04835 -6.821439 -3.488999 -5.206884 14.95937 -16.71159 0 -0.2989794 0 2.09966 -22.07794 18.5021 -2.79416 -1.633446 2.585262 2.339508 8.882843 -8.316953 1.136649 21.60053 7.221219 3.330765 -22.75286 8.594296 3.696837 -17.97144 10.75059 88.35327 31.21346 -21.06622 -0 0 12.61781 -13.35542 10.28933 7.346888 7.016972 -21.8748 -3.437238 -88.79643 26.41206 15.35715 0 0 -22.26758 4.896486 15.54388 7.753927
2.098643 98.0846 18.34913 -0.1584062 -0.2931729 3.682424 3.615473 -28.71517 2.630351 -0 19.06765 -0 -6.669963 -7.441698 -3.467801 -4.910947 15.80794 -16.56565 -0 1.425939 -0 2.021735 -22.12539 18.07034 -2.539996 -1.710142 2.540333 2.602317 8.953388 -8.632984 1.079935 21.46949 7.15907 3.364621 -23.0979 8.474714 3.605201 -17.92433 10.83782 88.8822 31.19615 -22.11982 -0 0 12.09181 -12.77564 10.30282 6.870621 7.216539 -22.51837 -3.4763 -88.59351 26.23931 14.91623 0 0 -23.44726 5.436647 15.82508 7.078123
2.268965 96.7833 21.95401 -0.3474055 -0.1324352 3.943308 4.190272 -29.99605 2.60068 -0 15.81284 -0 -7.136721 -7.717845 -3.520914 -4.668077 16.50513 -16.24191 -0 3.956668 -0 1.750429 -21.96041 17.53099 -2.28782 -1.734174 2.501201 2.796097 9.053069 -8.875583 1.050874 21.39372 7.080452 3.380454 -23.27253 8.344579 3.490732 -17.76703 10.91247 89.4169 31.02846 -23.0482 -0 0 11.4697 -12.43865 10.37842 6.485944 7.349228 -23.06543 -3.556065 -88.28869 25.97211 14.33631 0 0 -24.45789 5.912271 15.96546 6.473711
2.363356 95.52172 25.68639 -0.4656272 -0.2176707 4.118199 4.645043 -30.72836 2.538213 -0 13.46495 -0 -7.395083 -7.598727 -3.662261 -4.49567 17.00904 -15.71425 -0 7.405682 -0 1.24616 -21.54782 16.87571 -2.044352 -1.691892 2.470427 2.905546 9.178984 -9.026316 1.056263 21.38399 6.985333 3.374414 -23.24135 8.207477 3.359597 -17.47445 10.96966 89.93369 30.70679 -23.80599 -0 0 10.74771 -12.3867 10.53462 6.214101 7.397226 -23.47857 -3.677808 -87.8729 25.61739 13.60207 0 0 -25.25548 6.27356 15.93213 6.00174
2.396343 94.39097 29.65668 -0.5005337 -0.5846289 4.220181 4.967407 -30.80276 2.44725 -0 12.1447 -0 -7.384941 -7.053608 -3.918157 -4.401632 17.25961 -14.93644 -0 12.01971 -0 0.4424001 -20.82771 16.07927 -1.808402 -1.564649 2.454862 2.917866 9.327263 -9.067659 1.104487 21.45017 6.869766 3.341348 -22.96473 8.06358 3.218938 -17.01074 11.00611 90.41305 30.22985 -24.36004 -0 0 9.91085 -12.66051 10.79952 6.071438 7.341062 -23.7225 -3.840383 -87.33119 25.1839 12.68474 0 0 -25.81572 6.459157 15.6835 5.738278
2.384333 93.4904 33.97785 -0.4509586 -1.235889 4.261963 5.165152 -30.13532 2.345246 -0 11.83813 -0 -7.072792 -6.129595 -4.303006 -4.376256 17.171 -13.88913 -0 17.89632 -0 -0.6872122 -19.75941 15.14978 -1.57734 -1.342971 2.467191 2.829589 9.490096 -8.989354 1.199368 21.59214 6.730027 3.27865 -22.43087 7.912922 3.077371 -16.37115 11.0221 90.82437 29.61886 -24.6785 -0 0 8.981624 -13.26781 11.18855 6.068574 7.171447 -23.77339 -4.033011 -86.68017 24.6913 11.60475 0 0 -26.12356 6.41921 15.1998 5.747121
2.344604 92.92233 38.75585 -0.322059 -2.158553 4.253137 5.258836 -28.60713 2.262365 -0 12.44979 -0 -6.435973 -4.934841 -4.824366 -4.390006 16.59517 -12.56285 -0 25.05748 -0 -2.149712 -18.29785 14.12176 -1.346905 -1.021022 2.529911 2.639991 9.657335 -8.779827 1.342896 21.80413 6.560281 3.18409 -21.64021 7.753934 2.943592 -15.57571 11.02034 91.11926 28.90779 -24.71163 -0 0 8.020963 -14.20623 11.71139 6.221308 6.882119 -23.60661 -4.236383 -85.96152 24.16755 10.42777 0 0 -26.15215 6.104413 14.46701 6.093627
2.295461 92.7796 44.0722 -0.1290618 -3.306018 4.19618 5.280527 -26.06474 2.239568 -0 13.75699 -0 -5.483962 -3.676704 -5.462333 -4.380945 15.29977 -10.97925 -0 33.3076 -0 -3.904357 -16.41444 13.07848 -1.113551 -0.6037799 2.679027 2.354506 9.815639 -8.428242 1.531941 22.06946 6.353662 3.057295 -20.62203 7.583575 2.825331 -14.69505 11.00722 91.21942 28.15268 -24.38056 -0 0 7.160343 -15.44868 12.36122 6.551076 6.474952 -23.20111 -4.41835 -85.26101 23.65676 9.303301 0 0 -25.85308 5.477276 13.49069 6.831545
2.256299 93.11617 49.95441 0.09329763 -4.564802 4.079481 5.277172 -22.37322 2.32036 -0 15.29982 -0 -4.306162 -2.70982 -6.13221 -4.240107 12.97811 -9.222314 -0 42.02422 -0 -5.820047 -14.14335 12.17036 -0.8757065 -0.1206032 2.964609 1.994471 9.949268 -7.934952 1.751735 22.35123 6.104801 2.903024 -19.46644 7.396495 2.725804 -13.88605 10.99564 91.01295 27.44089 -23.58402 -0 0 6.633275 -16.90922 13.0966 7.073564 5.971839 -22.56 -4.531294 -84.72992 23.22527 8.507717 0 0 -25.16457 4.541725 12.32693 7.965515
